<svg width="113" height="27" viewBox="0 0 113 27" fill="none" xmlns="http://www.w3.org/2000/svg">
<path d="M14.762 1.395C17.4507 1.395 19.4363 2.14733 20.719 3.652C22.0263 5.15667 22.68 7.11767 22.68 9.535C22.68 12.0757 22.0263 14.123 20.719 15.677C19.4363 17.2063 17.4507 17.971 14.762 17.971H7.584V26H0.998V1.395H14.762ZM12.579 12.939C13.7137 12.939 14.54 12.643 15.058 12.051C15.6007 11.4343 15.872 10.608 15.872 9.572C15.872 7.45067 14.799 6.39 12.653 6.39H7.584V12.939H12.579ZM30.6125 26.481C28.7625 26.481 27.2701 26 26.1355 25.038C25.0255 24.0513 24.4705 22.744 24.4705 21.116C24.4705 19.5127 24.9145 18.2547 25.8025 17.342C26.7151 16.4047 28.3801 15.7387 30.7975 15.344L34.9785 14.604C35.8171 14.456 36.3845 14.2587 36.6805 14.012C36.9765 13.7653 37.1245 13.3953 37.1245 12.902C37.1245 12.31 36.9148 11.866 36.4955 11.57C36.0761 11.274 35.3608 11.126 34.3495 11.126C32.1788 11.126 31.0688 11.9647 31.0195 13.642H24.8405C24.9145 12.3347 25.3215 11.1753 26.0615 10.164C26.8261 9.128 27.9115 8.32633 29.3175 7.759C30.7235 7.19167 32.3761 6.908 34.2755 6.908C37.1615 6.908 39.3321 7.47533 40.7875 8.61C42.2675 9.74467 43.0075 11.385 43.0075 13.531V20.894C43.0075 22.7687 43.1185 24.4707 43.3405 26H37.8645C37.6671 24.8653 37.5685 23.5827 37.5685 22.152C37.0998 23.5333 36.2735 24.6063 35.0895 25.371C33.9301 26.111 32.4378 26.481 30.6125 26.481ZM33.0175 22.337C34.2508 22.337 35.2375 21.9053 35.9775 21.042C36.7421 20.1787 37.1245 18.933 37.1245 17.305V16.602C36.7298 16.898 36.3228 17.1323 35.9035 17.305C35.5088 17.453 34.9538 17.6133 34.2385 17.786L33.1655 18.045C32.2775 18.267 31.6485 18.563 31.2785 18.933C30.9085 19.2783 30.7235 19.7593 30.7235 20.376C30.7235 20.9927 30.9331 21.4737 31.3525 21.819C31.7965 22.1643 32.3515 22.337 33.0175 22.337ZM59.3291 7.204V13.383H57.0721C55.5181 13.383 54.3957 13.79 53.7051 14.604C53.0391 15.418 52.7061 16.75 52.7061 18.6V26H46.3421V7.5H52.5211V11.274C52.9157 9.91733 53.5201 8.906 54.3341 8.24C55.1727 7.54933 56.3197 7.204 57.7751 7.204H59.3291ZM60.5628 16.75C60.5628 14.974 60.9205 13.346 61.6358 11.866C62.3511 10.386 63.4858 9.18967 65.0398 8.277C66.6185 7.36433 68.6165 6.908 71.0338 6.908C73.1798 6.908 75.0051 7.278 76.5098 8.018C78.0145 8.758 79.1491 9.76933 79.9138 11.052C80.6785 12.31 81.0855 13.7283 81.1348 15.307H74.8818C74.6845 13.013 73.4265 11.866 71.1078 11.866C69.7018 11.866 68.6535 12.236 67.9628 12.976C67.2721 13.716 66.9268 14.974 66.9268 16.75C66.9268 18.526 67.2598 19.784 67.9258 20.524C68.5918 21.264 69.6155 21.634 70.9968 21.634C73.3895 21.634 74.7091 20.4747 74.9558 18.156H81.2088C81.1595 19.6853 80.7525 21.0913 79.9878 22.374C79.2478 23.6567 78.1255 24.6803 76.6208 25.445C75.1408 26.2097 73.3031 26.592 71.1078 26.592C68.6905 26.592 66.6925 26.1357 65.1138 25.223C63.5351 24.3103 62.3758 23.114 61.6358 21.634C60.9205 20.154 60.5628 18.526 60.5628 16.75ZM93.3974 22.337C94.3101 22.337 95.0624 22.1643 95.6544 21.819C96.2464 21.4737 96.6781 21.005 96.9494 20.413H103.128C102.758 22.2137 101.796 23.6937 100.242 24.853C98.6884 26.0123 96.3574 26.592 93.2494 26.592C89.7221 26.592 87.1321 25.6547 85.4794 23.78C83.8514 21.9053 83.0374 19.5497 83.0374 16.713C83.0374 14.863 83.4074 13.198 84.1474 11.718C84.8874 10.238 86.0221 9.06633 87.5514 8.203C89.0807 7.33967 90.9801 6.908 93.2494 6.908C96.7521 6.908 99.2804 7.84533 100.834 9.72C102.413 11.57 103.202 13.938 103.202 16.824C103.202 17.4407 103.165 17.9587 103.091 18.378H89.2164C89.3891 19.8087 89.8207 20.8323 90.5114 21.449C91.2021 22.041 92.1641 22.337 93.3974 22.337ZM93.3234 11.089C92.1394 11.089 91.2144 11.3727 90.5484 11.94C89.9071 12.4827 89.4877 13.3953 89.2904 14.678H97.1714C97.0481 13.494 96.6781 12.606 96.0614 12.014C95.4447 11.3973 94.5321 11.089 93.3234 11.089ZM112.108 0.0999982V26H105.744V0.0999982H112.108Z" fill="black"/>
</svg>
